<svg width="150mm" height="290mm" version="1.1" viewBox="0 0 150 290" xmlns="http://www.w3.org/2000/svg">
 <defs>
  <filter id="filter19" x="-.07961" y="-.04951" width="1.159" height="1.099" color-interpolation-filters="sRGB">
   <feGaussianBlur stdDeviation="0.74674155"/>
  </filter>
 </defs>
 <g stroke-linecap="round" stroke-linejoin="round">
  <g transform="translate(-7.57 -2.86)" stroke="#000" stroke-miterlimit="10">
   <path d="m84.5 240c-0.404 2.84 11.3 7.3 15.8 1.04" fill="#a5f5e8"/>
   <path d="m34.98 287c0.583 3.82 0.696 3.642 2.702 4.032 8.01 1.54 21.3 4.86 24.4-4.59" fill="#a5f5e8" stroke="#000" stroke-miterlimit="10"/>
   <path d="m56.3 160c-8.2 25.3-62.6 64.9-44.6 82.9 24.2 24.6 64.8-59.6 97.2-56.5" fill="none"/>
   <path d="m136 179c-3.37 0-12.2 4.84-17.9 8.1l-9.53-0.857c10.2 5.3 11.9 12.3 6.55 20.8 2.65-1.76 5.62-2.85 6.66-7.93 1.63 8.39 6e-3 15.4-7.48 19.9 4.11 2.07 16.9 3.56 24.6-10.6 0.687 3.85 1.52 7.7 1.15 11.5 5.19-3.68 18.2-6.74 9.61-21.9 7.73 0.766 7.67-3.99 6.7-9.38-2.95 4.67-8.32 3.61-14.2 1.3 0.287-3.8-2.52-11-6.16-11zm-2.16 3.78c0.992 1.26 2.2 3.15 2.07 4.54-4.35-1.76-12.7 1.65-13 0.717-0.322-0.93 6.91-4.18 10.9-5.26z" fill="#fefefe"/>
   <path d="m63.9 169c0.36 8.88 2.24 15.6 5.73 25.7 0.47 1.35 0.133 2.51 1.01 3.74 4.52 6.29 10 12.3 15.9 17.2-1.82 13-3.07 17.6-2.08 23.5 0.216 1.3 3.58 2.74 4.66-0.685-0.316 2.25 1.76 3.13 2.69 2.72 0.364 0.512 2.28 0.799 3.02 0.0461 0.909 0.505 2.49-0.114 3.08-0.711 0.512 0.494 2.29 0.545 2.61-0.5 1.62-5.37 0.705-9.54 0.448-14.5-0.269-4.54 2.61-12.1-1.9-14.7-0.778-9.03-2.07-15-7.53-21.3 1.37-7.59 2.68-15.2 1.99-23.8" fill="#f7e3d4"/>
  </g>
  <g transform="translate(-7.57 -2.86)" fill="none" stroke="#000" stroke-miterlimit="10">
   <path d="m68.3 174c7.3-0.828 14.3-2.12 21.1-3.9"/>
   <path d="m68.8 176c7.42-0.713 14.8-2.09 21.5-3.92"/>
   <path d="m69.3 178c7.31-0.261 12.2-0.361 19.1-2.04"/>
   <path d="m74.2 200c3.91 2.74 7.24 2.31 10.4 0.968"/>
   <path d="m88.97 197.3c1.47-2.29 2.24-5.18 2.57-7.82"/>
  </g>
  <path d="m24.9 163c-0.332 4.31 1.17 16.8 1.52 21.1 0.442 5.4 2.98 10.5 4.61 15.7-8.95 7.93-3.11 34.6 0.198 47.7 0.506 2 0.618 3.72 1.07 5.58-1.33 1.14-2.22 2.71-0.645 5.62-0.199 9.58-5.9 19.4-4.42 24.9 0.464 1.73 3.48 1.65 5.16 1.4 1.04 1.5 4.23 1.86 4.98 0.928 0.72 0.946 3.49 1.52 4.21 0.3 1.29 1.26 3.35 0.579 4.66-0.395 1.28-0.949 0.924-2.66 1.01-4.23 0.07 1.1 0.159 2.11 0.287 3.21 0.265 2.27 4.65 1.16 5.64 0.0595 2.13-2.37 2.33-4.27 0.801-6.37-3.82-5.23-6.54-16-9.36-24.1 0 0-0.102-4.6-0.211-6.9-0.788-16.7 1.78-39 3.96-42.8 2.22-3.85 1.92-5.81 1.25-10.8 0.365-2.19 0.728-4.37 1.08-6.48 2.47-2.12 1.94-7.83 1.63-10.2l-0.237-6.65c0.737-0.972 0.992-2.27 0.93-3.39" fill="#f7e3d4"/>
  <g transform="translate(-7.57 -2.86)" stroke="#000" stroke-miterlimit="10">
   <path d="m41.6 201c0.909 2.29 2.35 4.23 4.03 6.03" fill="none"/>
   <path d="m39 251c4.96 1.35 9.25 1.12 13-0.341 0.0681 1.81 0.126 3.58 0.164 5.26-3.83 1.02-7.97 0.843-12.3-0.0744m5.32 0.745c0.0334 4.8 0.13 9.5 0.0038 14.3 0.995-0.0217 2.02-0.0591 3.12-0.0378-0.496-4.83-0.485-9.54-0.472-14.3zm-10.26 24.88c9.01-2.61 17.8-3.259 26.8 0.2272-2.14-3.14-3.539-6.336-4.649-9.636-6.39-1.48-12.71-1.766-19.61 6e-3m56.58-57.09c-0.628 4.58-0.832 9.16-1.19 13.7l-2.58-0.154c0.267-4.11 0.807-8.45 0.529-12.1m-6.23 12.2c5.08-0.282 12.1 0.45 16.7 1.64 0.14-0.0183 0.269 4.71-0.171 6.91-4.71-0.775-11.9-2.1-17-1.31m2.41-20.3c5.1-2.16 8.9-5.67 12-9.94l0.56 5.09c-3.69 3.72-7.11 6.57-12.7 6.15" fill="#a5f5e8"/>
   <path d="m99.2 230c0.0014-0.0181-0.3504 4.564-0.5174 6.774" fill="none"/>
   <path d="m21.1 177c-0.719-2.5 1.36-4.88 3.22-4.57 3.53 0.586 6.76 4.13 8.91 6.62m3.44 18.2-0.666 2.74-6.32-0.0311 0.797-4.29 3.26 0.267 1.02-4.55m-1.09-7.77c-2.66 3.88-4.36 7.85-6.3 11.8l6.37 0.521c0.228-1.56 0.578-3.07 1.02-4.55m-1.09-7.77c-2.55 2.8-8.64 7-11.4 6.14-2.23-0.705-3.33-7.84-3.17-11.6l14.1 0.916" fill="#f4bec7"/>
   <path d="m33.2 179c-5.65-2.75-13.1-3.25-14.1-1.13 4.82 2.3 9.51 2.52 14.1 1.13" fill="#99666e"/>
   <path d="m32.6 172c8.33 2.88 17.5 5.36 27.1 2.15l0.237 6.65c-7.82 1.18-17 1.17-26.7-1.01 7.53 5.27 15.5 10.6 25 11.2l-1.08 6.48c-7.74-1.2-15.9-5.04-23.3-11.1" fill="#f4bec7"/>
  </g>
  <g transform="translate(-7.57 -2.86)" fill="none" stroke="#000" stroke-miterlimit="10">
   <path d="m37.45 280.8 2.069-9.032"/>
   <path d="m33.5 182c-2.52 1.53-5.8 2.75-9.76 2.83"/>
   <path d="m32.5 166c-0.332 4.31 1.17 16.8 1.52 21.1 0.442 5.4 2.98 10.5 4.61 15.7-8.95 7.93-3.11 34.6 0.198 47.7 0.506 2 0.618 3.72 1.07 5.58-1.33 1.14-2.22 2.71-0.645 5.62-0.199 9.58-5.9 19.4-4.42 24.9 0.464 1.73 3.48 1.65 5.16 1.4 1.04 1.5 4.23 1.86 4.98 0.928 0.72 0.946 3.49 1.52 4.21 0.3 1.29 1.26 3.35 0.579 4.66-0.395 1.28-0.949 0.924-2.66 1.01-4.23 0.07 1.1 0.159 2.11 0.287 3.21 0.265 2.27 4.65 1.16 5.64 0.0595 2.13-2.37 2.33-4.27 0.801-6.37-3.82-5.23-6.54-16-9.36-24.1 0 0-0.102-4.6-0.211-6.9-0.788-16.7 1.78-39 3.96-42.8 2.22-3.85 1.92-5.81 1.25-10.8 0.365-2.19 0.728-4.37 1.08-6.48 2.47-2.12 1.94-7.83 1.63-10.2l-0.23-6.072c0.737-0.972 0.985-2.848 0.923-3.968"/>
  </g>
  <g transform="translate(-7.57 -2.86)">
   <path d="m66.9 19c-11.8 13.7-39.2 24.2-23.7 48.2 5.31 4.07 11.3 6.64 17 7.43l0.0284-0.0036c3.3 11.9-14 8.54-18.1 12.6-9.75 7.09-14.2 19.1-19.9 29.9 0 0 15.6-7.33 20-8.58 16.8-4.84 42.5-9.66 42.5-9.66 0.265 5.79 2.18 11.6 0.334 17.4 0 0-4.66 9.55-2.7 9.88l17.8 3.76c2.83-15.8-1.82-26-3.82-36.1 0 0-0.237-6.16-2.03-8.15-1.78-1.28-4.55-1.88-7.1-2.12-9.81-0.937-18.4-1.21-11.8-11 2.11-0.717 3.53-1.34 6.05-2.68-2.49-5.24 0.402-12.9 0.642-19 0.156-3.41-9.69-17.9-15.2-31.8z" fill="#f7e3d4"/>
   <path d="m68.1 8.35c-7.7-0.493-17.2 3.07-17.2 3.07-3.83-8.05-10.04-9.578-9.816 7.362-5.604 2.82-12.6 2.481-18.26 3.388-0.717 1.55-0.537 3.3 0.471 5.22l-2.88-1.09c1.36 3.84 0.867 8.14 5.93 11.1-2.35 0.893-5.29 1.2-8.99 0.741 3.72 5.29 5.73 11.7 15.2 13.3-9.2 9.8-4.96 12.8-1.26 16-0.723-2.72-0.177-5.04 0.816-7.24 2.51 13.4 9.72 12 15.7 14.6-0.876 3.82-0.543 7.08-0.657 10.5l5.12-4.65-1.84 4.82c10.7-2.76 10.4-7.57 10.2-7.65 0 0 2.37-1.53 3.34-3.2-1.47 0.0035-2.93-0.104-4.37-0.321-5.54-0.835-10.9-3.29-16.1-7.3-7.12-11-1.74-20.4 6.45-30.9 14.7-11.4 16 5.16 18.4-8.8 5.56 13.9 14.2 20 14.1 23.4-0.0864 1.88-2.01 4.35-2.76 8.19-0.799 4.11-0.0019 7.68 2.12 10.8-2.76 1.46-4.22 2.2-6.84 3.01-1.6 3.83-1.38 7.34-1.06 7.25l-0.1 0.934-3.52 3.88c3.35-0.542 6.66-1.51 9.57-6.7 2.85 5.64 6.85 4.55 10.9 3.3-3.51-1.86-4.3-4.59-5.6-7.16 3.39 3.06 5.98 2.98 8.48 2.57-2.06-2.09-4.13-4.18-4.36-7.15 2.32 0.822 4.68 1.34 7.07 1.54-1.45-2.96-2.73-5.93-3.56-8.96 3.62 2.84 7.25 1.34 10.9-0.376-1.94-1.35-3.48-2.89-4.34-4.78 3.36-3.19 8.16-4.83 6.14-13.8 2.12 2.91 3.69 6.1 4.09 10.4 0.961-5.42 8.52-8.08-3.18-21.2 1.28-1.79 3.17-3.18 3.4-5.69-10.5-7.61-17.3-8.88-17.3-8.88s0.518 0.12-3.29-2.52c-2.83-11.8-4.14-16.2-8.39-4.53-3.9-1.36-8.59-2.27-12.7-2.38z" fill="#fefefe"/>
  </g>
  <g stroke="#000">
   <path d="m51.2 64.3c0.628-1.09 4.6-0.0215 6.06-0.372 1.47-0.351 6.19-4.45 10.4-4.56 2.75-0.0703 3.57 3.83 1.66 5.57-3.46 3.16-8.13 5.18-12.4 4.35-2.48-0.479-6.83-3.08-5.72-4.99z" fill="#fff" stroke-miterlimit="10"/>
   <path d="m81.7 66.7c-0.34 2.31 0.961 4.68 4.36 7.15-3.57 0.302-7.18 0.695-8.52-3.68-0.11 3.27 1.91 6.83 5.64 8.27-5.48 2.35-9.14 1.3-10.9-3.3-2.11 4.79-5.37 6.87-9.57 6.7 2.28-2.58 4.74-5.02 5.57-8.52m-26.9-5.63c-1.95 4.52-2.9 8.05-1.88 14.3 2.86-1.68 5.11-4.24 7.19-6.58-1.5 1.8-3.3 4.83-3.84 6.26m42.48-22.37c3.34 3.53 7.007 1.834 10.82-0.4025-2.16-1.27-4.21-2.63-4.42-5.37 5.24-1.82 8.19-5.52 6.22-13.2 3.28 3.36 3.99 6.41 4.09 10.4 3.93-6.97 5.178-13.36-3.332-21.26 7.15 4.22 10.66 9.37 9.962 15.76m-35.6-35c0.138-0.702 0.291-1.46 0.46-2.22 0.788-3.57 1.93-7.4 3.58-7.4 2.04 0 4.71 7.5 4.7 12.5-0.0015 0.552-0.404 1.27-0.882 1.54-3.01 1.74-5.44 0.792-7.55-2.58-0.292-0.468-0.419-1.3-0.313-1.84v-2e-6m9.37 14.3c4.48 5.37 9.5 6.18 15.2 3.02m-15.8 0.149c6.64 6.84 13.4 6.36 20.1-1.4 1.1-1.26 0.591-2.76-0.904-3.5-7.07-3.52-13.2-10.8-18.3-6.05m-8.7 16.5c7.31 5.93 10.8 12.8 10.1 20.8 3.57-6.32 8.68-12.2 4.5-20.6m-3.43 18.8c0.834 1.98 0.0236 3.69 0.0236 4.74 0 1.81 0.0166 6.12 3.69 11.4-5.04 0.62-7.72-1.96-10.8-4.13-0.286 2.09-0.216 4.18-0.167 6.27-3.93-2.81-6.66-7.73-5.95-12.6m-0.283-14.9c-1.65-2-3.31-4.3-4.84-6.75m18.05-20.86c-0.476-0.59-1.174-1.751-3.024-2.801m-8.375-4.609c-3.94-1.52-8.745-2.511-14.9-2.511-22.9 0-28.8 17.8-34 19-4.42 1.04-7.97 0.854-11.6-0.932 0.599 6.96 2.65 8.39 5.93 11.1-3.39 1.78-5.66 1.39-8.99 0.741 3.54 10.2 13.6 13.6 15.9 13.3-9.66 8.52-6.58 12.2-1.93 16-0.806-3.49-0.963-5.38 0.816-7.24 0.958 10 10.5 14.3 15.7 14.6m-24.6-47.4s-2.45-3.7-0.471-5.22c2.75-2.12 12.81 1.079 19.91-5.174m-9.498 34.45c-8.23 3.42-11.3 7.84-10 13.1m20.3 2.52c4.92 3.77 15.9 7.6 19.3 7.6 4.9 0 10.6-0.56 19-4.96m-18.4-28.9c-0.694-3.97-1.48-7.96 0.0844-11.6m-12.7-17.7c-1.5-3.28-3.26-6.52-5.83-6.16-3.18 0.458-4.89 8.41-4.04 13.3" fill="none"/>
   <g stroke-miterlimit="10">
    <path d="m24.1 97-2.64 0.0241 2.46 2.95-4.84-1.4 3.59 2.39-2.46 0.576 3.21 0.867"/>
    <g transform="translate(-7.57 -2.86)" fill="none">
     <path d="m60.2 74.4c0.776 6.79-0.609 8.17-6.36 10.1-0.146 0.0488-3.71 0.179-3.86 0.229-4.51-0.0365-7.34 1.34-8.69 3.96"/>
     <path d="m84 83.6c4.88-0.0034 9.07-0.831 11.8 4.01 1.01 1.82 0.432 4.82 0.606 6.21s1.56 7.26 2.57 10.5c2.17 7.03 2.73 14.31 2.33 21.41l-17.03 2.691c-0.784-6.97 1.59-15 1.64-16.8 0.0524-1.76-0.922-9.11-0.822-14.1"/>
     <path d="m76.9 82.4c0.735 0.296 1.7 0.57 2.58 0.744"/>
     <path d="m75.55 72.69c-2.21 3.45-2.483 5.73-1.463 7.45"/>
    </g>
    <g transform="translate(-7.57 -2.86)">
     <path d="m88.4 94.1c-2.06 1.91-4.44 4.66-5.91 6.7"/>
     <path d="m22.78 116.9c5.71-2.39 11.75-4.966 17.15-7.526" fill="none"/>
     <path d="m54.2 84.4c5.58 1.18 7.06 1.55 10.3 4.21 4.75-1.48 9.08-2.01 13.7-2.55" fill="none"/>
    </g>
   </g>
  </g>
  <path d="m63.7 70.9c-3.43 0.439-6.94 0.8-11.1 0.632-0.291-0.0118 0.0736 4.44 1.76 4.96 3.52 1.09 7.3-2.88 9.3-5.59z"/>
  <g stroke="#000" stroke-miterlimit="10">
   <g transform="translate(-7.57 -2.86)" fill="#a5f5e8">
    <path d="m101 149c2.46 5.24 6.54 9.69 10.7 14.1-5.94 4.88-13 4.47-20.4 2.16-3.5 4.05-7.98 7.61-12.6 11.1-5.64-2.25-11.4-4.34-16.4-8.22-2.3 3.42-7.27 5.49-11.7 7.85-4.92-3.02-9.22-6.48-12.7-10.5-7.12 1.29-13.5-0.109-18.6-5.9 3.22-3.16 6.8-6.19 11.1-8.93"/>
    <path d="m38.32 126.2c-2.52 7.5-6.425 15.4-7.335 16.2s-4.74 1.52-8.45 4.8c7.19 4.77 14.4 6.17 21.6 3.28 3.98 2.66 7.98 5.36 13 7.24 5.06-2.3 9.53-5.31 14.1-8.17 4.39 2.23 9.33 3.87 14.4 5.36 8.23-2.59 15.7-5.61 23.2-8.64-6.26-6.18-12.3-12.4-19.8-18.5-16.9-0.5284-33.69-2.845-50.72-1.574z"/>
    <path d="m41.1 109c-0.795 6.33-3.66 11.3-7.17 15.9 4.7 2.09 9.55 2.58 14.6 0.921 2.85 2.87 5.89 5.48 8.96 8.06 3.87-2.1 7.5-4.36 11-6.69 3.04 2.67 6.14 5.22 9.4 7.35 2.39-2.12 4.5-4.26 6.29-6.42-4.53-22.2-10.2-42.5-43.1-19.1z"/>
    <path d="m83 100-3.94-6.12 4.78-10.3 0.778-0.603-4.46-0.828-0.679 1.01-3.69 9.41s-6.51-3.57-11.3-3.92-12 2.24-12 2.24l0.81-6.27-3.1 0.197-1.07 6.78c-7.74 3.54-3.89 8.29-13.5 17.5 10 0.09 14.3 1.77 21.6 3.66 3.15-1.9 6.4-3.72 10.1-5.19 1 0.767 2.04 1.51 2.87 2.4l4.45-0.606c2.5-3.28 5.19-6.45 8.33-9.39"/>
   </g>
   <circle cx="42.8" cy="105" r="6.64" fill="#f9eeb8"/>
   <path d="m63.7 146c0.307 3.33 1.24 6.16 2.16 9.01" fill="none"/>
   <g transform="translate(-7.57 -2.86)">
    <circle cx="73.9" cy="116" r="6.69" fill="#fefefe"/>
    <circle cx="46" cy="134" r="6.88" fill="#fefefe"/>
    <circle cx="70.8" cy="145" r="7.42" fill="#f9eeb8"/>
    <circle cx="94.9" cy="153" r="6.83" fill="#f4bec7"/>
    <circle cx="39.7" cy="160" r="7.1" fill="#f4bec7"/>
   </g>
   <g transform="translate(-7.57 -2.86)" fill="none">
    <path d="m44.7 96.4c1.33-0.868 2.82-1.63 4.36-2.35"/>
    <path d="m51.3 93.2c1.17-0.442 2.36-0.839 3.61-1.13"/>
    <path d="m56.8 91.4c1.12-0.338 2.25-0.467 3.35-0.527"/>
    <path d="m62.8 91c1.46 0.0968 2.88 0.235 4.13 0.553"/>
    <path d="m74.3 94.9c1.24 0.674 2.45 1.35 3.61 2.04"/>
    <path d="m68.6 92.2c1.39 0.644 2.82 1.2 4.01 1.86"/>
   </g>
  </g>
  <path d="m59.15 127c-2.032-3.927 1.028-4.422 3.715-5.442 3.5 0.396 4.385 3.374 5.925 5.534l4.251 2.067c1.301-7.758-8.519-14.01-5.891-24.38 2.802-5.634 6.901-6.924 9.212-5.834-3.466 9.31 0.02696 20.75 2.408 19.46l1.29-15.1c2.42-5.74 6.67-6.12 9.17-2.28 0.762 3.54-1.36 6.8-2.47 10.2-2.06 8.77 1.51 9.21 3.08 10.6 9.322 0.9067 6.051 8.115 4.021 13.8-3.27 3.91-5.268 8.748-13.68 4.742 0 0-5.101 0.5752-5.851 0.3052-1.218-1.162-16.27-12.59-15.19-13.6z" fill="#f7e3d4"/>
  <path d="m86.29 119.5c-0.321-3.47-0.08933-6.661 1.029-9.881 1.27-2.62 2.82-5.74 1.56-8.47-1.9-4.1-8.63-0.948-8.97 3.41-0.198 2.48-0.512 6.91-0.689 13.8-0.0251 0.97-1.14 1.41-1.54 0.577-5.9-12-0.504-17.8-1.78-19.9-1.24-2.03-8.6 2.51-9.08 7.92-0.524 5.86 2.11 10.8 5.29 16 1.54 2.52 1.56 3.99 0.728 6.47-1.33-0.891-2.22-1.46-3.21-1.79-0.491-0.167-0.936-0.539-1.15-1.01-0.789-1.75-2.73-3.98-4.55-4.47-2.63-0.705-7.64 2.7-4.61 5.72 7.78 7.78 6.25 3.98 13 11.6 2.36 2.65 6.93 0.623 8.15 1.33 10 5.78 15.6-7.68 15.6-12.9 0-3-2.07-5.53-4.9-5.6-3.33-0.0821-6.04 5.09-8.13 8.71-0.747 1.29 1.32 5.5 2.51 6.19 1.23 0.71 4.16-0.135 5.57-2.18 0.327-0.473 0.494-1.31-0.173-1.9 0.679-0.241 1.31-0.864 1.48-1.53" fill="none" stroke="#000" stroke-miterlimit="10"/>
  <path d="m89.8 122c-2.71-4.03-11.2-5.32-13.7 8.02-0.153 0.805 1.53 5.87 5.66 5.46" fill="none" stroke="#000" stroke-miterlimit="10"/>
  <path d="m71.4 42.8c-0.227 0.0029-0.451 0.0123-0.671 0.0289-3.44 0.261-7.37 2.49-8.62 5.69-0.991 2.54 0.406 7.03 1.96 7.93 3.45 1.99 10.4 1.59 13.7 0.141 1.73-0.764 3.96-6.4 2.6-9.34-1.39-3-5.52-4.5-8.93-4.46zm-30.7 0.332c-3.73 0.0812-7.4 3.58-8.14 8.1 6.33 6.03 11.9 6.19 17.3 5.31 0.632-0.102 1.21-0.714 1.23-1.35 0.111-5.93-4.58-11.5-9.65-12-0.249-0.0257-0.498-0.0354-0.747-0.03z" fill="#fefefe"/>
  <path d="m56 13.4-13 19.1c-0.199 4.44-0.171 6.65 2.67 10.5 1.12 1.49 2.65 2.82 4.87 4-0.61-2.29-1.15-4.57-1.1-6.86 4.61 4.67 10.1 8 16 9.45-4.82-7.63-6.67-15.6-4.56-25.2 1.44-6.53 1.03-11-4.89-11z" fill="#a8f5e5" filter="url(#filter19)"/>
  <path d="m32.6 51.3c1.02-6.23 7.64-11.1 14-5.76" fill="none" stroke="#000" stroke-miterlimit="10"/>
  <path d="m74.6 43.6a7.87 7.87 0 0 0-7.87 7.87 7.87 7.87 0 0 0 3.3 6.38c2.88 0.085 5.88-0.398 7.72-1.21 1.73-0.764 3.96-6.4 2.6-9.34-0.737-1.59-2.25-2.76-4.02-3.5a7.87 7.87 0 0 0-1.74-0.197zm-28.7 1.4c-3.24 0.0903-5.85 2.75-5.85 6.01 0 3.04 2.26 5.55 5.19 5.96 1.56 0.0244 3.09-0.14 4.62-0.385 0.632-0.102 1.21-0.714 1.23-1.35 0.0766-4.1-2.14-8.02-5.18-10.2z"/>
 </g>
 <g stroke="#000" stroke-linecap="round" stroke-linejoin="round">
  <g fill="none">
   <path d="m80.4 47.3c-1.48-3.2-6.09-4.7-9.6-4.43-3.44 0.261-7.37 2.49-8.62 5.69"/>
   <path d="m40.4 72c-12.9-21.4-7.76-23.6 1.07-37.1 4.73-7.22 14.6-21.4 14.6-21.4m-13 19c-0.199 4.44-0.25 6.63 2.59 10.5 1.12 1.49 2.65 2.82 4.87 3.99-0.61-2.29-1.15-4.57-1.1-6.86 4.61 4.67 10.1 8 16 9.45-4.82-7.63-6.86-16.3-4.41-25.8 1.4 4.2 3.24 8.29 5.69 12.2m-35.8-9.57c-9.17 8.2-15.9 15.8 5.34 27.7"/>
   <path d="m42.4 41.6c-1.22-0.34-2.39-0.359-3.55-0.309m1.11-7.24c1.62 0.722 3.04 1.52 4.02 2.5m30.4 22.3c2.04-0.221 3.97-0.656 5.32-2.22m-45-1.71c1.59 1.37 3.37 2.26 5.25 2.88m12.1 2.89c1.43-0.231 2.94-0.246 4.53 0m-5.2-3.19c0.693-1.88 2.2-3.07 4.61-3.49 0.0384 0.984-0.0019 1.97-0.225 2.95 2.12-0.988 3.78-1.1 5.51-1.1m4.49-19c0.7-0.946 1.85-1.73 3.37-2.38m-12.5 32.4c1.08 0.23 2.3 0.0119 3.32-0.478"/>
  </g>
  <path d="m33.8 78.2c2.63-1.45 5.2-2.84 7.85-3.95 0.749-0.314 1.77 0.0034 2 0.78 0.46 1.55-0.148 3.07-2.16 4.97-0.528 0.5-1.54 1.08-2.22 1.34l-1.92 0.731c-0.971 0.37-2.19 1.39-2.73 2.28-1.48 2.44-3.02 4.84-4.99 6.92-0.23 0.242-0.612 0.627-0.87 0.839-0.548 0.451-1.18 0.816-1.9 1.03-0.696 0.21-1.47 0.774-1.65 1.48-1.02 3.95-1.38 7.99-3.11 11.6-0.144 0.3-0.397 0.778-0.563 1.07-1.6 2.8-3.65 4.76-6.08 6.54-0.487 0.355-1.38 0.669-1.98 0.624-1.66-0.122-3.04-0.771-3.9-1.81-0.579-0.703-0.836-1.52-0.95-2.08-0.0763-0.379-0.234-0.974-0.403-1.32-0.342-0.708-0.861-1.85-1.02-2.57-0.364-1.68 0.151-3.51 0.938-5.12 0.265-0.541 0.757-1.39 1.09-1.89 2.17-3.24 5.16-5.4 7.83-8.75 0.675-0.848 0.68-2.31 0.0836-3.22l-0.97-1.47c0.0333-1.02 0.15-2.06 0.324-3.04 0.292-1.64 1.52-4.84 3.04-4.54 0.412 0.0823 0.709 0.398 0.709 0.99 0 1.67-0.874 3.83-1.06 6.41 0.656-2.77 1.34-5.5 0.974-9.64 1.32-2.64 2.63-5.58 4.25-8.19 1.29-2.07 3.47-5.48 4.34-5.9 1.02-0.485 2.99 0.426 2.38 1.78-0.789 1.77-1.45 3.48-2.66 5.51l-3.13 4.77c2.58-3.19 4.85-6.4 7.78-9.36 0.518-0.523 1.45-1.43 2.17-1.39 0.843 0.037 1.66 0.723 1.82 1.82 0.0452 0.293 0.22 0.388 0.47 0.227 1.74-1.12 2.87-0.588 3.1 0.795 0.106 0.648-0.114 1.46-0.425 2.1-1.02 1.47-2.3 2.78-3.51 4.1-1.3 1.51-2.22 2.25-2.96 5.56z" fill="#f7e3d4" stroke-miterlimit="10"/>
  <g transform="translate(-7.57 -2.86)" fill="none" stroke-miterlimit="10">
   <path d="m37 78.9c1.57-2.77 3.18-5.51 5.98-7.54"/>
   <path d="m30.4 78.7-0.634 2.37"/>
   <path d="m33.4 80.4-0.582 2.17"/>
   <path d="m36.8 82.4-0.86 1.49"/>
   <path d="m40.3 84.6-2.03 2.03"/>
  </g>
 </g>
</svg>
