<?xml version="1.0" encoding="UTF-8" standalone="no"?>
<svg
   width="150.146mm"
   height="290.137mm"
   version="1.1"
   viewBox="0 0 150.146 290.137"
   id="svg64"
   sodipodi:docname="charco.svg"
   inkscape:version="1.3.2 (091e20e, 2023-11-25, custom)"
   xmlns:inkscape="http://www.inkscape.org/namespaces/inkscape"
   xmlns:sodipodi="http://sodipodi.sourceforge.net/DTD/sodipodi-0.dtd"
   xmlns="http://www.w3.org/2000/svg"
   xmlns:svg="http://www.w3.org/2000/svg">
  <sodipodi:namedview
     id="namedview64"
     pagecolor="#ffffff"
     bordercolor="#000000"
     borderopacity="0.25"
     inkscape:showpageshadow="2"
     inkscape:pageopacity="0.0"
     inkscape:pagecheckerboard="0"
     inkscape:deskcolor="#d1d1d1"
     inkscape:document-units="mm"
     inkscape:zoom="1.6861503"
     inkscape:cx="304.24334"
     inkscape:cy="420.78099"
     inkscape:window-width="3840"
     inkscape:window-height="2054"
     inkscape:window-x="-11"
     inkscape:window-y="-11"
     inkscape:window-maximized="1"
     inkscape:current-layer="svg64"
     showgrid="false" />
  <defs
     id="defs1">
    <filter
       id="filter19"
       x="-0.079502726"
       y="-0.049588625"
       width="1.1590055"
       height="1.0991773"
       color-interpolation-filters="sRGB">
      <feGaussianBlur
         stdDeviation="0.74674155"
         id="feGaussianBlur1" />
    </filter>
  </defs>
  <g
     transform="translate(-7.574072 -2.860536)"
     stroke="#000"
     stroke-linecap="round"
     stroke-linejoin="round"
     stroke-miterlimit="10"
     id="g5"
     style="stroke-linejoin:round;stroke-linecap:round">
    <path
       d="m84.5216 239.5323c-0.403694 2.83933 11.3447 7.30546 15.79356 1.04099"
       fill="#a5f5e8"
       id="path1"
       style="stroke-linejoin:round;stroke-linecap:round" />
    <path
       d="m34.79376 286.6701c0.583206 3.81946 0.873634 3.60322 2.883027 3.98879 8.008232 1.53665 21.31644 4.85882 24.39253-4.59177"
       fill="#a5f5e8"
       stroke="#000"
       stroke-linecap="round"
       stroke-linejoin="round"
       stroke-miterlimit="10"
       id="path2"
       style="stroke-linejoin:round;stroke-linecap:round" />
    <path
       d="m56.27697 159.461c-8.195727 25.27568-62.62441 64.86122-44.548 82.93763 24.25216 24.63412 64.84538-59.61791 97.22011-56.52246"
       fill="none"
       id="path3"
       style="stroke-linejoin:round;stroke-linecap:round" />
    <path
       d="m136.3724 178.6342c-3.36626 0-12.21239 4.83637-17.89126 8.09858l-9.53223-0.8568c10.2323 5.29776 11.90682 12.33981 6.5536 20.81424 2.6496-1.76266 5.62481-2.85405 6.66471-7.93079 1.6269 8.38743 6e-3 15.39829-7.48378 19.92075 4.1109 2.0734 16.8862 3.5602 24.61193-10.64948 0.68677 3.8476 1.51783 7.69538 1.15446 11.54297 5.18967-3.68075 18.24561-6.73553 9.60664-21.89427 7.73422 0.76563 7.67238-3.98679 6.70192-9.38289-2.95137 4.67042-8.32243 3.61364-14.22342 1.30328 0.28715-3.80186-2.52239-10.96559-6.16257-10.96559zm-2.16441 3.77919c0.99253 1.25525 2.20383 3.15379 2.06646 4.543-4.35331-1.76349-12.68011 1.64648-13.00187 0.7169-0.32176-0.92956 6.91255-4.18198 10.93541-5.2599z"
       fill="#fefefe"
       id="path4"
       style="stroke-linejoin:round;stroke-linecap:round" />
    <path
       d="m63.93794 169.2356c0.359709 8.87916 2.245387 15.65146 5.728568 25.6911 0.469583 1.35349 0.133305 2.51306 1.013667 3.73871 4.52027 6.2932 10.02889 12.30872 15.86322 17.17967-1.824717 13.04646-3.068289 17.56701-2.079992 23.48546 0.216256 1.29506 3.577015 2.73798 4.660234-0.68455-0.315702 2.24918 1.762012 3.12589 2.692139 2.71847 0.363738 0.51221 2.277077 0.79939 3.021252 0.0461 0.908877 0.50511 2.491266-0.11359 3.080491-0.71088 0.512548 0.4944 2.291101 0.54469 2.606571-0.50024 1.62024-5.36665 0.70494-9.53918 0.4476-14.48096-0.26865-4.54173 2.61011-12.08443-1.895693-14.7179-0.777857-9.02892-2.070796-15.02338-7.530092-21.32649 1.371801-7.58703 2.677341-15.20593 1.987015-23.78473"
       fill="#f7e3d4"
       id="path5"
       style="stroke-linejoin:round;stroke-linecap:round" />
  </g>
  <g
     transform="translate(-7.574072 -2.860536)"
     fill="none"
     stroke="#000"
     stroke-linecap="round"
     stroke-linejoin="round"
     stroke-miterlimit="10"
     id="g10"
     style="stroke-linejoin:round;stroke-linecap:round">
    <path
       d="m68.29741 174.0873c7.300303-0.82786 14.34212-2.12099 21.11585-3.89669"
       id="path6"
       style="stroke-linejoin:round;stroke-linecap:round" />
    <path
       d="m68.82399 176.4306c7.414826-0.71334 14.78058-2.09063 21.49762-3.92302"
       id="path7"
       style="stroke-linejoin:round;stroke-linecap:round" />
    <path
       d="m69.30172 177.4728c7.308273-0.26097 12.15917-0.36059 19.12801-2.0405"
       id="path8"
       style="stroke-linejoin:round;stroke-linecap:round" />
    <path
       d="m74.20899 200.5281c3.906816 2.74504 7.239609 2.31382 10.40713 0.9681"
       id="path9"
       style="stroke-linejoin:round;stroke-linecap:round" />
    <path
       d="m88.9726 197.4935c1.468688-2.2936 2.237972-5.1809 2.573311-7.81942"
       id="path10"
       style="stroke-linejoin:round;stroke-linecap:round" />
  </g>
  <path
     d="m24.89627 163.1204c-0.331961 4.31146 1.167601 16.82276 1.520382 21.13922 0.441516 5.40218 2.978595 10.49649 4.607573 15.74474-8.948552 7.93135-3.109073 34.59638 0.197468 47.6818 0.505898 2.00205 0.617906 3.72117 1.066325 5.58175-1.326007 1.14415-2.221668 2.70817-0.645061 5.62124-0.199033 9.58204-5.90097 19.40555-4.42327 24.9204 0.464299 1.73279 3.476762 1.65426 5.160483 1.39544 1.037801 1.50294 4.232685 1.85545 4.982762 0.92809 0.720448 0.94573 3.491928 1.52316 4.20968 0.29976 1.292121 1.26084 3.353576 0.57893 4.664295-0.39532 1.276699-0.94896 0.923726-2.66523 1.005977-4.22898 0.06999 1.10143 0.158698 2.10956 0.286836 3.20656 0.265125 2.26976 4.650969 1.16148 5.64011 0.0595 2.129632-2.37249 2.329826-4.27199 0.80105-6.36564-3.818669-5.22964-6.535504-15.98026-9.360893-24.072 0 0-0.102532-4.60027-0.210633-6.8982-0.787511-16.74025 1.77679-38.99882 3.962514-42.78461 2.223984-3.85205 1.924393-5.81112 1.250631-10.82116 0.364735-2.18841 0.727856-4.36714 1.079489-6.47693 2.466394-2.11623 1.94104-7.83348 1.632395-10.17615l-0.236961-6.64807c0.736959-0.97147 0.991929-2.26722 0.930543-3.38763"
     fill="#f7e3d4"
     id="path11"
     style="stroke-linejoin:round;stroke-linecap:round" />
  <g
     transform="translate(-7.574072 -2.860536)"
     stroke="#000"
     stroke-linecap="round"
     stroke-linejoin="round"
     stroke-miterlimit="10"
     id="g17"
     style="stroke-linejoin:round;stroke-linecap:round">
    <path
       d="m41.59981 201.3905c0.908712 2.28601 2.349982 4.23312 4.028337 6.02935"
       fill="none"
       id="path12"
       style="stroke-linejoin:round;stroke-linecap:round" />
    <path
       d="m38.96926 251.2888c4.960763 1.34799 9.250117 1.11538 13.01981-0.34061 0.06806 1.80961 0.126316 3.57675 0.163987 5.25469-3.829592 1.01593-7.965548 0.84333-12.29096-0.0744m5.320202 0.74483c0.03345 4.80407 0.130427 9.50211 0.0038 14.31232 0.995404-0.0217 2.016365-0.0591 3.115773-0.0378-0.496288-4.83037-0.485085-9.53976-0.472297-14.28529zm-10.34458 24.90038c9.013818-2.6068 18.02764-3.18778 27.04145 0.29591-2.1411-3.14369-3.644932-6.38284-4.753644-9.68118-6.394233-1.48205-12.94436-1.80423-19.77656-0.0278m56.74301-57.11986c-0.627697 4.57942-0.831535 9.15884-1.189659 13.73826l-2.583907-0.15412c0.266894-4.10991 0.806896-8.44742 0.529288-12.10358m-6.226987 12.18019c5.084196-0.28184 12.08525 0.4504 16.71408 1.63971 0.13959-0.0183 0.26945 4.70861-0.17127 6.91181-4.712973-0.77508-11.89938-2.09581-17.02919-1.30777m2.409067-20.30017c5.099421-2.15933 8.904611-5.67381 11.97292-9.93813l0.559679 5.09363c-3.686406 3.722-7.111673 6.56835-12.71784 6.15439"
       fill="#a5f5e8"
       id="path13"
       style="stroke-linejoin:round;stroke-linecap:round" />
    <path
       d="m99.23258 230.064c0.0014-0.0181-0.338467 4.78269-0.505217 6.98555"
       fill="none"
       id="path14"
       style="stroke-linejoin:round;stroke-linecap:round" />
    <path
       d="m 21.08451,177.0631 c -0.718578,-2.50178 1.362181,-4.881 3.220522,-4.57276 3.534343,0.58624 6.759157,4.12691 8.907797,6.62068 m 3.444362,18.20947 -0.665622,2.73876 -6.315415,-0.0311 0.796849,-4.29107 3.261746,0.26704 1.016278,-4.55284 m -1.0855,-7.77065 c -2.662307,3.88289 -4.35874,7.85358 -6.297931,11.80221 l 6.367153,0.52128 c 0.228044,-1.55452 0.577719,-3.06849 1.016278,-4.55284 m -1.0855,-7.77065 c -2.545942,2.80023 -8.639453,6.99755 -11.35008,6.139 -2.226699,-0.70527 -3.328823,-7.83657 -3.17426,-11.62497 l 14.07165,0.91636"
       fill="#f4bec7"
       id="path15"
       sodipodi:nodetypes="csccccccccccccscc"
       style="stroke-linejoin:round;stroke-linecap:round" />
    <path
       d="m33.22718 179.3268c-5.647034-2.7467-13.12363-3.25194-14.08601-1.13215 4.820953 2.30195 9.505995 2.52161 14.08601 1.13215"
       fill="#99666e"
       id="path16"
       style="stroke-linejoin:round;stroke-linecap:round" />
    <path
       d="m32.57993 171.5427c8.32571 2.87784 17.51076 5.35893 27.08157 2.14963l0.236961 6.64807c-7.816437 1.18532-16.97728 1.17365-26.67127-1.01367 7.527171 5.27147 15.49275 10.61917 25.03888 11.18982l-1.079489 6.47693c-7.744904-1.19817-15.85921-5.03915-23.31905-11.13089"
       fill="#f4bec7"
       id="path17"
       style="stroke-linejoin:round;stroke-linecap:round" />
  </g>
  <g
     transform="translate(-7.574072 -2.860536)"
     fill="none"
     stroke="#000"
     stroke-linecap="round"
     stroke-linejoin="round"
     stroke-miterlimit="10"
     id="g20"
     style="stroke-linejoin:round;stroke-linecap:round">
    <path
       d="m37.36881 281.0966 2.124054-9.22745"
       id="path18"
       style="stroke-linejoin:round;stroke-linecap:round" />
    <path
       d="m33.4655 181.681c-2.517759 1.53019-5.803216 2.74827-9.756242 2.83261"
       id="path19"
       style="stroke-linejoin:round;stroke-linecap:round" />
    <path
       d="m32.47034 165.9809c-0.331961 4.31146 1.167601 16.82276 1.520382 21.13922 0.441516 5.40218 2.978595 10.49649 4.607573 15.74474-8.948552 7.93135-3.109073 34.59638 0.197468 47.6818 0.505898 2.00205 0.617906 3.72117 1.066325 5.58175-1.326007 1.14415-2.221668 2.70817-0.645061 5.62124-0.199033 9.58204-5.90097 19.40555-4.42327 24.9204 0.464299 1.73279 3.476762 1.65426 5.160483 1.39544 1.037801 1.50294 4.232685 1.85545 4.982762 0.92809 0.720448 0.94573 3.491928 1.52316 4.20968 0.29976 1.292121 1.26084 3.353576 0.57893 4.664295-0.39532 1.276699-0.94896 0.923726-2.66523 1.005977-4.22898 0.06999 1.10143 0.158698 2.10956 0.286836 3.20656 0.265125 2.26976 4.650969 1.16148 5.64011 0.0595 2.129632-2.37249 2.329826-4.27199 0.80105-6.36564-3.818669-5.22964-6.535504-15.98026-9.360893-24.072 0 0-0.102532-4.60027-0.210633-6.8982-0.787511-16.74025 1.77679-38.99882 3.962514-42.78461 2.223984-3.85205 1.924393-5.81112 1.250631-10.82116 0.364735-2.18841 0.727856-4.36714 1.079489-6.47693 2.466394-2.11623 1.94104-7.83348 1.632395-10.17615l-0.236961-6.64807c0.736959-0.97147 0.991929-2.26722 0.930543-3.38763"
       id="path20"
       style="stroke-linejoin:round;stroke-linecap:round" />
  </g>
  <g
     transform="translate(-7.574072 -2.860536)"
     id="g22"
     style="stroke-linejoin:round;stroke-linecap:round">
    <path
       d="m66.90909 19.00401c-11.79275 13.65861-39.16061 24.23243-23.66574 48.17432 5.309301 4.069678 11.33961 6.637522 16.98449 7.432105l0.02842-0.0036c3.30505 11.87925-14.03069 8.540461-18.05936 12.57236-9.745911 7.092349-14.14952 19.13782-19.89336 29.94028 0 0 15.62217-7.32967 19.96002-8.58345 16.75417-4.84247 42.46178-9.659124 42.46178-9.659124 0.264648 5.785894 2.177002 11.55469 0.334481 17.36247 0 0-4.66103 9.55289-2.696379 9.87491l17.7984 3.76101c2.82657-15.79965-1.82035-26.03071-3.824052-36.07841 0 0-0.237237-6.159954-2.027266-8.15299-1.777769-1.276372-4.552432-1.881203-7.099822-2.124436-9.81385-0.937059-18.42989-1.211609-11.74657-11.0231 2.112339-0.717414 3.529757-1.341686 6.051827-2.676839-2.493665-5.242382 0.401609-12.86051 0.641821-18.97869 0.156322-3.409586-9.692605-17.89789-15.24868-31.83682z"
       fill="#f7e3d4"
       id="path21"
       style="stroke-linejoin:round;stroke-linecap:round" />
    <path
       d="m68.08267 8.353495c-7.69705-0.4932094-17.18466 3.068066-17.18466 3.068066-3.833664-8.053632-10.1712-9.653189-9.976882 7.288141-6.118767 1.62617-12.48485 2.410282-18.07342 3.462069-0.717165 1.551021-0.536775 3.296979 0.470772 5.222937l-2.876827-1.086755c1.362721 3.844664 0.86688 8.136545 5.930388 11.09028-2.351356 0.893278-5.292045 1.197095-8.992733 0.74104 3.723596 5.291245 5.7285 11.67226 15.24145 13.29221-9.199073 9.802784-4.964796 12.7754-1.262455 16.01814-0.722584-2.715368-0.177424-5.045047 0.815454-7.238318 2.512442 13.35736 9.722965 11.9502 15.65744 14.5526-0.876286 3.82343-0.543443 7.077858-0.657324 10.54251l5.115967-4.654496-1.844818 4.821105c10.66857-2.764074 10.44674-7.565661 10.24428-7.650689 0 0 2.367088-1.532754 3.338839-3.201573-1.47395 0.0035-2.929952-0.103946-4.370421-0.320844-5.545089-0.834949-10.86001-3.292538-16.08259-7.295745-7.115416-10.99438-1.737339-20.40344 6.450297-30.92031 14.66428-11.45044 15.97295 5.162121 18.38838-8.798568 5.556076 13.93892 14.23206 19.97178 14.07574 23.38137-0.08636 1.883491-2.013569 4.34718-2.759525 8.187672-0.798785 4.112478-0.0019 7.675247 2.117703 10.79101-2.761144 1.461717-4.221817 2.198695-6.841306 3.013159-1.601564 3.830236-1.383042 7.341307-1.062604 7.253915l-0.100199 0.934213-3.519735 3.881514c3.352239-0.542378 6.664078-1.508693 9.573576-6.69985 2.852514 5.642564 6.850556 4.554 10.87686 3.300574-3.506625-1.857989-4.300467-4.591104-5.597591-7.161837 3.388695 3.056244 5.978393 2.982048 8.481136 2.568319-2.061436-2.091971-4.126968-4.181889-4.358907-7.152018 2.318301 0.822365 4.675665 1.336575 7.072953 1.535823-1.447695-2.955615-2.730718-5.930991-3.561023-8.960693 3.624302 2.840705 7.248423 1.341975 10.87272-0.375688-1.93558-1.346856-3.48024-2.891673-4.339269-4.783687 3.362729-3.190553 8.164479-4.82877 6.139159-13.83275 2.11848 2.911134 3.69217 6.096181 4.09174 10.40505 0.96088-5.418216 8.52474-8.082609-3.18533-21.22454 1.28338-1.792908 3.16571-3.18014 3.39669-5.685958-10.54088-7.610953-17.32297-8.877494-17.32297-8.877494s0.517935 0.11954-3.293216-2.518278c-2.829556-11.81909-4.143232-16.16021-8.394217-4.530486-3.896015-1.35799-8.593677-2.272637-12.69351-2.381152z"
       fill="#fefefe"
       id="path22"
       style="stroke-linejoin:round;stroke-linecap:round" />
  </g>
  <g
     stroke="#000"
     stroke-linecap="round"
     stroke-linejoin="round"
     id="g34"
     style="stroke-linejoin:round;stroke-linecap:round">
    <path
       d="m51.16575 64.33034c0.627618-1.087066 4.596547-0.02152 6.063584-0.372522 1.467037-0.351003 6.191343-4.45274 10.45107-4.561499 2.751874-0.07026 3.56744 3.827631 1.656989 5.57365-3.463121 3.165052-8.133576 5.184969-12.45037 4.352235-2.485139-0.479397-6.825676-3.078973-5.721268-4.991864z"
       fill="#fff"
       stroke-miterlimit="10"
       id="path23"
       style="stroke-linejoin:round;stroke-linecap:round" />
    <path
       d="m81.72502 66.72276c-0.339887 2.307813 0.961322 4.685466 4.35851 7.152304-3.567022 0.301572-7.177825 0.695263-8.523683-3.677942-0.110205 3.270035 1.906204 6.830698 5.640381 8.271338-5.480605 2.346472-9.134706 1.298994-10.87701-3.300883-2.11292 4.785694-5.366531 6.871298-9.573602 6.69995 2.281456-2.580825 4.739089-5.023437 5.566513-8.518706m-26.8943-5.629491c-1.951523 4.522393-2.903382 8.048322-1.883674 14.31632 2.859545-1.676108 5.108436-4.241272 7.190219-6.578048-1.495134 1.80206-3.299313 4.83085-3.84152 6.260158m42.3498-22.41985c3.343445 3.525913 7.086495 1.857088 10.87292-0.375703-2.15717-1.27305-4.207397-2.626817-4.415062-5.37119 5.241322-1.820162 8.187622-5.51917 6.214832-13.24519 3.275562 3.364372 3.986802 6.406413 4.091672 10.40492 3.92924-6.9741 5.14387-13.39075-3.368422-21.33335 7.146442 4.214775 10.68924 9.412381 10.00035 15.76407m-35.60181-35.02446c0.138019-0.701982 0.290728-1.455882 0.459701-2.221477 0.788042-3.570538 1.929819-7.395537 3.58486-7.395537 2.041018 0 4.709553 7.504013 4.695605 12.50304-0.0015 0.552103-0.403474 1.266098-0.881546 1.542188-3.007384 1.73679-5.437988 0.792194-7.545813-2.5829-0.292508-0.468371-0.419354-1.303404-0.312807-1.845312v-2e-6m9.36925 14.31428c4.478486 5.368663 9.505348 6.180455 15.21369 3.023053m-15.84556 0.148697c6.639261 6.836899 13.3452 6.364845 20.11759-1.398193 1.09887-1.259611 0.59094-2.760295-0.90441-3.50424-7.066302-3.51551-13.23675-10.81018-18.31836-6.054114m-8.70192 16.46026c7.306214 5.929437 10.77337 12.82763 10.05595 20.78172 3.573376-6.315826 8.6771-12.22195 4.499427-20.61299m-3.431767 18.7932c0.834142 1.984326 0.02364 3.689449 0.02364 4.739255 0 1.81397 0.01658 6.121624 3.689346 11.45058-5.036636 0.619458-7.71989-1.955817-10.77221-4.133557-0.285626 2.090258-0.215583 4.180527-0.167023 6.270784-3.928945-2.813645-6.664819-7.729399-5.95356-12.6114m-0.283185-14.9349c-1.651419-2.001655-3.312672-4.304929-4.843747-6.753347m18.05873-20.77436c-0.475652-0.589523-1.220703-1.811012-3.074149-2.858025m-8.272026-4.568173c-3.943433-1.52392-8.849904-2.54632-15.01859-2.54632-22.92739 0-28.7495 17.79379-34.0031 19.02959-4.423242 1.040469-7.969279 0.854386-11.60166-0.931532 0.598679 6.964731 2.647048 8.39337 5.930637 11.09045-3.389585 1.778489-5.654709 1.394303-8.992898 0.741014 3.539966 10.16561 13.64708 13.62677 15.90769 13.28271-9.66538 8.515086-6.582528 12.20242-1.928758 16.02749-0.805845-3.491156-0.963408-5.378618 0.815512-7.23816 0.957719 10.03974 10.53636 14.25756 15.70912 14.5557m-24.5644-47.37229s-2.448012-3.703254-0.470788-5.223127c2.753934-2.116923 12.9603 0.832703 20.12788-5.417618m-9.688572 34.668c-8.233519 3.424204-11.25793 7.837861-10.00184 13.06456m20.28997 2.51764c4.922396 3.773108 15.85521 7.597344 19.32052 7.597344 4.89993 0 10.64874-0.560476 18.95208-4.956162m-18.34956-28.86931c-0.693767-3.973898-1.481369-7.959915 0.08436-11.64226m-12.6845-17.71223c-1.504165-3.279694-3.265002-6.524741-5.831604-6.155674-3.183781 0.4578145-4.892922 8.407598-4.034818 13.33246"
       fill="none"
       id="path24"
       style="stroke-linejoin:round;stroke-linecap:round" />
    <g
       stroke-miterlimit="10"
       id="g33"
       style="stroke-linejoin:round;stroke-linecap:round">
      <path
         d="m24.14048 96.97529-2.63486 0.02407 2.460293 2.95001-4.839381-1.40317 3.585789 2.387696-2.459305 0.57594 3.212268 0.86744"
         id="path25"
         style="stroke-linejoin:round;stroke-linecap:round" />
      <g
         transform="translate(-7.574072 -2.860536)"
         fill="none"
         id="g29"
         style="stroke-linejoin:round;stroke-linecap:round">
        <path
           d="m60.1986 74.37824c0.775496 6.790709-0.608632 8.168049-6.36329 10.08912-0.14607 0.04876-3.706925 0.179446-3.858663 0.229007-4.51128-0.03652-7.336344 1.341506-8.688473 3.955162"
           id="path26"
           style="stroke-linejoin:round;stroke-linecap:round" />
        <path
           d="m83.98304 83.57343c4.880872-0.0034 9.074332-0.830734 11.74918 4.009963 1.006484 1.821443 0.431753 4.814973 0.605567 6.213643s1.561249 7.264314 2.567076 10.51843c2.172007 7.027 2.696557 13.47815 2.299787 20.64458l-16.97908 3.50008c-0.784341-6.96755 1.585934-15.00087 1.638328-16.75567 0.05239-1.7548-0.922495-9.1092-0.822128-14.0795"
           id="path27"
           style="stroke-linejoin:round;stroke-linecap:round" />
        <path
           d="m76.93004 82.40842c0.734558 0.295928 1.694983 0.570168 2.576565 0.744213"
           id="path28"
           style="stroke-linejoin:round;stroke-linecap:round" />
        <path
           d="m75.46966 72.48738c-2.21016 3.452007-2.434496 5.921695-1.408477 7.641207"
           id="path29"
           style="stroke-linejoin:round;stroke-linecap:round" />
      </g>
      <g
         transform="translate(-7.574072 -2.860536)"
         id="g32"
         style="stroke-linejoin:round;stroke-linecap:round">
        <path
           d="m88.42592 94.08666c-2.057553 1.909485-4.443985 4.655948-5.90691 6.70534"
           id="path30"
           style="stroke-linejoin:round;stroke-linecap:round" />
        <path
           d="m23.02974 116.6194c5.709233-2.39013 11.39211-4.80095 16.79186-7.36131"
           fill="none"
           id="path31"
           style="stroke-linejoin:round;stroke-linecap:round" />
        <path
           d="m54.24155 84.43197c5.579251 1.182756 7.061555 1.551064 10.31714 4.211164 4.754258-1.484687 9.084814-2.014132 13.73057-2.547329"
           fill="none"
           id="path32"
           style="stroke-linejoin:round;stroke-linecap:round" />
      </g>
    </g>
  </g>
  <path
     d="m63.68825 70.88535c-3.427025 0.439055-6.9438 0.799579-11.06372 0.632354-0.291252-0.01182 0.07361 4.440232 1.75958 4.960973 3.523313 1.088242 7.296497-2.884243 9.304137-5.593327z"
     id="path34"
     style="stroke-linejoin:round;stroke-linecap:round" />
  <g
     stroke="#000"
     stroke-linecap="round"
     stroke-linejoin="round"
     stroke-miterlimit="10"
     id="g49"
     style="stroke-linejoin:round;stroke-linecap:round">
    <g
       transform="translate(-7.574072 -2.860536)"
       fill="#a5f5e8"
       id="g38"
       style="stroke-linejoin:round;stroke-linecap:round">
      <path
         d="m101.1216 149.0341c2.46127 5.23454 6.53981 9.69279 10.72397 14.10035-5.94481 4.87925-12.96707 4.47383-20.37864 2.15898-3.494959 4.05367-7.984017 7.6103-12.58526 11.11083-5.64053-2.25381-11.34589-4.33474-16.37663-8.21464-2.2961 3.41564-7.267211 5.49377-11.69007 7.84603-4.923539-3.01992-9.223505-6.47634-12.74323-10.47893-7.117056 1.29284-13.48716-0.10868-18.64093-5.8977 3.22072-3.1611 6.802378-6.18685 11.14314-8.92794"
         id="path35"
         style="stroke-linejoin:round;stroke-linecap:round" />
      <path
         d="m38.18995 126.6772c-2.522393 7.50221-6.295887 14.60994-7.210581 15.37362s-4.735579 1.51899-8.449634 4.8033c7.186945 4.76996 14.45003 6.17075 21.63076 3.27666 3.976225 2.65668 7.98398 5.36291 12.98041 7.24217 5.062908-2.29947 9.533357-5.3099 14.12654-8.17304 4.390087 2.22999 9.33064 3.87019 14.40988 5.36181 8.229793-2.58852 15.73146-5.61392 23.23454-8.63847-6.26517-6.18146-12.32374-12.37881-19.82544-18.46515"
         id="path36"
         style="stroke-linejoin:round;stroke-linecap:round" />
      <path
         d="m41.10137 109.3515c-0.795103 6.32752-3.660283 11.31905-7.168038 15.89568 4.695446 2.08805 9.54959 2.57974 14.6172 0.92139 2.848341 2.87113 5.894395 5.47909 8.96276 8.05687 3.86836-2.10405 7.499072-4.36123 11.02103-6.68797 3.041211 2.67333 6.136212 5.21516 9.399426 7.34581 2.387507-2.11691 4.499776-4.25632 6.291606-6.42286-4.52599-22.15166-10.16673-42.51698-43.12398-19.10892z"
         id="path37"
         style="stroke-linejoin:round;stroke-linecap:round" />
      <path
         d="m83.02848 99.99751-3.941723-6.119227 4.778759-10.30636 0.778539-0.603438-4.45887-0.828477-0.678574 1.012629-3.687207 9.413123s-6.508557-3.565677-11.26071-3.922624-11.97969 2.244548-11.97969 2.244548l0.809617-6.272883-2.952225 0.18824-0.144723 0.0092-1.067237 6.776077c-7.745452 3.537978-3.888705 8.288366-13.53486 17.52829 10.05124 0.09 14.30164 1.77306 21.60232 3.66361 3.146655-1.90458 6.396229-3.72496 10.084-5.18681 1.004031 0.76704 2.043445 1.51048 2.869861 2.39593l4.449599-0.60556c2.497966-3.27939 5.192064-6.45318 8.333126-9.386296"
         id="path38"
         style="stroke-linejoin:round;stroke-linecap:round" />
    </g>
    <circle
       cx="42.80012"
       cy="105.0223"
       r="6.63906"
       fill="#f9eeb8"
       id="circle38"
       style="stroke-linejoin:round;stroke-linecap:round" />
    <path
       d="m63.69337 146.3394c0.307358 3.32568 1.241051 6.16421 2.164117 9.011"
       fill="none"
       id="path39"
       style="stroke-linejoin:round;stroke-linecap:round" />
    <g
       transform="translate(-7.574072 -2.860536)"
       id="g43"
       style="stroke-linejoin:round;stroke-linecap:round">
      <circle
         cx="73.8757"
         cy="115.758"
         r="6.691"
         fill="#fefefe"
         id="circle39"
         style="stroke-linejoin:round;stroke-linecap:round" />
      <circle
         cx="46.0102"
         cy="134.5137"
         r="6.881449"
         fill="#fefefe"
         id="circle40"
         style="stroke-linejoin:round;stroke-linecap:round" />
      <circle
         cx="70.76744"
         cy="145.2187"
         r="7.418165"
         fill="#f9eeb8"
         id="circle41"
         style="stroke-linejoin:round;stroke-linecap:round" />
      <circle
         cx="94.93713"
         cy="153.4426"
         r="6.829508"
         fill="#f4bec7"
         id="circle42"
         style="stroke-linejoin:round;stroke-linecap:round" />
      <circle
         cx="39.67876"
         cy="160.1933"
         r="7.098355"
         fill="#f4bec7"
         id="circle43"
         style="stroke-linejoin:round;stroke-linecap:round" />
    </g>
    <g
       transform="translate(-7.574072 -2.860536)"
       fill="none"
       id="g48"
       style="stroke-linejoin:round;stroke-linecap:round">
      <path
         d="m44.74345 96.38234c1.33235-0.868209 2.817817-1.628335 4.360117-2.348344"
         id="path43"
         style="stroke-linejoin:round;stroke-linecap:round" />
      <path
         d="m51.30204 93.15198c1.170129-0.441836 2.362742-0.838706 3.607069-1.132146"
         id="path44"
         style="stroke-linejoin:round;stroke-linecap:round" />
      <path
         d="m56.81797 91.41426c1.118761-0.337579 2.250744-0.466761 3.348849-0.526579"
         id="path45"
         style="stroke-linejoin:round;stroke-linecap:round" />
      <path
         d="m62.83414 90.993c1.45566 0.09681 2.874713 0.234793 4.133651 0.55291"
         id="path46"
         style="stroke-linejoin:round;stroke-linecap:round" />
      <path
         d="m74.30042 94.92918c1.245117 0.674056 2.448832 1.354028 3.607072 2.040495"
         id="path47"
         style="stroke-linejoin:round;stroke-linecap:round" />
      <path
         d="m68.59119 92.19806c1.389424 0.644089 2.822477 1.201527 4.013374 1.858024"
         id="path48"
         style="stroke-linejoin:round;stroke-linecap:round" />
    </g>
  </g>
  <path
     d="m59.35161 127.3108c-2.141879-3.97096 0.827771-4.82497 3.586703-5.80747 3.500117 0.39596 4.514675 3.03069 6.060916 5.18653l3.874362 2.17553c1.797278-8.23481-8.118683-13.69033-5.771713-23.80686 2.308908-6.111592 6.715015-7.629182 9.30551-6.269702-3.377979 9.205772 1.304894 19.55006 2.311551 19.89693l1.28742-15.13742c2.419279-5.745322 6.665925-6.118992 9.167446-2.27825 0.762056 3.53765-1.356517 6.79548-2.471761 10.15078-2.064034 8.76899 1.512293 9.21224 3.07584 10.57254 9.955816-0.13255 6.021286 7.90846 3.992856 13.61101-3.268468 3.91024-6.36436 8.19239-13.27516 4.60062 0 0-5.387142 0.14757-6.13835-0.1216-0.751207-0.26917-15.00562-12.77264-15.00562-12.77264z"
     fill="#f7e3d4"
     id="path49"
     style="stroke-linejoin:round;stroke-linecap:round" />
  <path
     d="m86.24309 119.465c-0.320944-3.47 0.0017-7.1758 1.119977-10.39766 1.266603-2.61584 2.820572-5.73633 1.556899-8.47092-1.896195-4.103359-8.62554-0.947636-8.973589 3.40698-0.198298 2.481-0.512016 6.91003-0.688844 13.75828-0.02506 0.97046-1.136756 1.40971-1.545245 0.57713-5.896643-12.01846-0.50448-17.83929-1.775429-19.91586-1.240681-2.027118-8.594883 2.511946-9.078612 7.922266-0.523962 5.86031 2.110482 10.83399 5.287434 16.05219 1.537327 2.52509 1.56452 3.9891 0.727918 6.46791-1.328622-0.89094-2.21458-1.45679-3.206908-1.79402-0.491394-0.16699-0.935901-0.53925-1.148931-1.01196-0.789194-1.75121-2.732515-3.98368-4.553026-4.47148-2.632428-0.70536-7.638152 2.69784-4.613117 5.72287 7.779789 7.77978 6.24825 3.97495 12.98955 11.56562 2.356243 2.65312 6.931967 0.62283 8.154426 1.32862 10.01327 5.78117 15.62931-7.67461 15.62931-12.90187 0-3.00263-2.06916-5.52923-4.902409-5.59901-3.332083-0.0821-6.041977 5.08929-8.132226 8.70971-0.746585 1.29313 1.32056 5.5009 2.511124 6.18827 1.229581 0.7099 4.157612-0.1352 5.568251-2.17523 0.326943-0.47282 0.493624-1.31387-0.172749-1.89825 0.678674-0.24135 1.305624-0.86392 1.478999-1.52994"
     fill="none"
     stroke="#000"
     stroke-linecap="round"
     stroke-linejoin="round"
     stroke-miterlimit="10"
     id="path50"
     style="stroke-linejoin:round;stroke-linecap:round" />
  <path
     d="m89.77789 121.9934c-2.705732-4.02958-11.18556-5.32504-13.72255 8.01859-0.153113 0.80531 1.52763 5.87062 5.659691 5.4549"
     fill="none"
     stroke="#000"
     stroke-linecap="round"
     stroke-linejoin="round"
     stroke-miterlimit="10"
     id="path51"
     style="stroke-linejoin:round;stroke-linecap:round" />
  <path
     d="m71.4149 42.85037c-0.227201 0.0029-0.451065 0.01227-0.67076 0.02894-3.434713 0.26058-7.369508 2.48591-8.623246 5.694226-0.991022 2.536022 0.405857 7.033825 1.958536 7.930265 3.452311 1.993192 10.38499 1.591749 13.66687 0.14056 1.727224-0.763749 3.958163-6.403722 2.601391-9.335347-1.388076-2.999267-5.524777-4.502222-8.932788-4.458644zm-30.69994 0.332279c-3.733995 0.08115-7.396658 3.582154-8.138521 8.098214 6.331724 6.033905 11.88702 6.186022 17.30747 5.313371 0.632212-0.101781 1.213805-0.713943 1.225765-1.353923 0.110899-5.932402-4.576022-11.50356-9.64799-12.02769-0.248721-0.0257-0.497792-0.03538-0.746725-0.02997z"
     fill="#fefefe"
     id="path52"
     style="stroke-linejoin:round;stroke-linecap:round" />
  <path
     d="m55.95381 13.44497-13.024 19.06004c-0.198782 4.435329-0.170827 6.646793 2.671155 10.4991 1.123489 1.490208 2.646247 2.820541 4.867403 3.994588-0.609822-2.287204-1.151444-4.574393-1.096574-6.861597 4.613104 4.669517 10.14113 8.003405 16.029 9.448519-4.81804-7.632069-6.672925-15.5737-4.561062-25.16086 1.438048-6.528261 1.027277-11.02188-4.885921-10.97979z"
     fill="#a8f5e5"
     filter="url(#filter19)"
     id="path53"
     style="stroke-linejoin:round;stroke-linecap:round" />
  <path
     d="m32.57626 51.28088c1.024143-6.234431 7.634598-11.10929 14.00095-5.764245"
     fill="none"
     stroke="#000"
     stroke-linecap="round"
     stroke-linejoin="round"
     stroke-miterlimit="10"
     id="path54"
     style="stroke-linejoin:round;stroke-linecap:round" />
  <path
     d="m74.59456 43.60846a7.865856 7.865856 0 0 0-7.866187 7.86567 7.865856 7.865856 0 0 0 3.300574 6.383073c2.881939 0.08496 5.87493-0.398156 7.717359-1.212846 1.727222-0.763748 3.958162-6.403725 2.601391-9.335347-0.736938-1.592332-2.249264-2.762342-4.015259-3.503663a7.865856 7.865856 0 0 0-1.737878-0.196887zm-28.66698 1.401465c-3.243784 0.09028-5.846155 2.746429-5.846155 6.012036 0 3.040702 2.256335 5.552544 5.18573 5.957259 1.559077 0.02445 3.093284-0.139719 4.616773-0.384989 0.632211-0.101781 1.213805-0.713943 1.225765-1.353923 0.07659-4.097165-2.135475-8.021479-5.182113-10.23038z"
     id="path55"
     style="stroke-linejoin:round;stroke-linecap:round" />
  <g
     fill="none"
     stroke="#000"
     stroke-linecap="round"
     stroke-linejoin="round"
     id="g58"
     style="stroke-linejoin:round;stroke-linecap:round">
    <path
       d="m80.34751 47.30889c-1.480614-3.199215-6.088321-4.696023-9.60344-4.429342-3.43471 0.260581-7.369666 2.485849-8.623404 5.694162"
       id="path56"
       style="stroke-linejoin:round;stroke-linecap:round" />
    <path
       d="m40.36065 71.9682c-12.92522-21.45389-7.754873-23.60596 1.073837-37.06544 4.732693-7.215047 14.57119-21.39581 14.57119-21.39581m-12.99678 19.01895c-0.198782 4.435327-0.249916 6.625915 2.592066 10.47822 1.123489 1.49021 2.646256 2.820157 4.867412 3.994204-0.609822-2.287204-1.151605-4.574421-1.096735-6.861625 4.613105 4.669515 10.14134 8.003679 16.02921 9.448795-4.81804-7.632072-6.864262-16.25516-4.412134-25.76098 1.399982 4.199992 3.243742 8.293321 5.688447 12.24221m-35.83738-9.568498c-9.165618 8.194502-15.94142 15.78389 5.343067 27.67147"
       id="path57"
       style="stroke-linejoin:round;stroke-linecap:round" />
    <path
       d="m42.45392 41.62754c-1.223451-0.339984-2.39343-0.359132-3.551918-0.309335m1.110028-7.241805c1.624253 0.722424 3.040618 1.524805 4.021362 2.494733m30.42803 22.31762c2.04051-0.22142 3.971423-0.656164 5.324578-2.215473m-45.0033-1.708767c1.589095 1.36803 3.365607 2.262006 5.252635 2.876441m12.065 2.890229c1.434125-0.231369 2.94057-0.245777 4.533744 0m-5.195374-3.18692c0.692778-1.878363 2.194505-3.070878 4.611912-3.487055 0.03842 0.984249-0.0019 1.968498-0.224972 2.952747 2.115646-0.987688 3.775722-1.104335 5.511798-1.096732m4.494112-18.95384c0.700234-0.946328 1.845613-1.729843 3.365826-2.37626m-12.47185 32.43805c1.07695 0.23051 2.299573 0.01193 3.318327-0.478064"
       id="path58"
       style="stroke-linejoin:round;stroke-linecap:round" />
  </g>
  <path
     d="m33.79834 78.17344c2.631863-1.450047 5.204663-2.843908 7.85123-3.953301 0.749264-0.314078 1.767773 0.0034 1.997758 0.779893 0.45984 1.552555-0.147695 3.067808-2.156808 4.968586-0.52812 0.499642-1.537359 1.081319-2.216948 1.339948l-1.921135 0.731121c-0.970817 0.369461-2.190561 1.391346-2.729771 2.279174-1.480992 2.438501-3.022275 4.842404-4.990151 6.915463-0.229823 0.242107-0.611916 0.626769-0.869704 0.838925-0.547862 0.450882-1.184731 0.816064-1.895516 1.030702-0.695494 0.210021-1.471722 0.773815-1.654465 1.479202-1.022718 3.947687-1.385447 7.990979-3.109437 11.56699-0.144454 0.29963-0.397338 0.77746-0.562609 1.06767-1.595532 2.80178-3.647414 4.76499-6.08512 6.5411-0.486981 0.35481-1.380386 0.66857-1.98088 0.6243-1.660505-0.12241-3.042555-0.77064-3.899506-1.81045-0.579072-0.70263-0.835996-1.51878-0.94975-2.08386-0.07631-0.37907-0.234172-0.97374-0.402837-1.32296-0.341743-0.70759-0.861184-1.85191-1.016635-2.57036-0.364445-1.68436 0.151269-3.5078 0.937677-5.11529 0.264805-0.54129 0.757257-1.38674 1.092266-1.887472 2.170067-3.243592 5.164531-5.400494 7.833187-8.751724 0.675318-0.848048 0.680394-2.314483 0.08359-3.220026l-0.970016-1.471822c0.0333-1.023808 0.150444-2.060608 0.324165-3.034863 0.292246-1.638967 1.523409-4.840719 3.041038-4.537343 0.411614 0.08228 0.708555 0.398405 0.708555 0.990537 0 1.669298-0.873506 3.83216-1.057605 6.412401 0.655597-2.770972 1.343284-5.499158 0.974172-9.63641 1.322005-2.645457 2.626499-5.577549 4.252133-8.188317 1.290599-2.072701 3.470271-5.483478 4.344285-5.897695 1.023958-0.485279 2.99035 0.425771 2.384096 1.783209-0.788834 1.766249-1.447906 3.476263-2.660551 5.509923l-3.133151 4.765547c2.582409-3.194241 4.850054-6.401945 7.781694-9.357325 0.518395-0.522593 1.450387-1.425529 2.166175-1.394108 0.842567 0.03699 1.655519 0.723314 1.823727 1.81521 0.04518 0.293274 0.219864 0.388044 0.469843 0.227389 1.736459-1.115976 2.871273-0.588072 3.096696 0.795148 0.105551 0.647673-0.113751 1.459331-0.424781 2.103488-1.025215 1.470389-2.294642 2.781418-3.5125 4.103786-1.295825 1.505882-2.222681 2.251663-2.96241 5.563611z"
     fill="#f7e3d4"
     stroke="#000"
     stroke-linecap="round"
     stroke-linejoin="round"
     stroke-miterlimit="10"
     id="path59"
     style="stroke-linejoin:round;stroke-linecap:round" />
  <g
     transform="translate(-7.574072 -2.860536)"
     fill="none"
     stroke="#000"
     stroke-linecap="round"
     stroke-linejoin="round"
     stroke-miterlimit="10"
     id="g64"
     style="stroke-linejoin:round;stroke-linecap:round">
    <path
       d="m37.0267 78.87306c1.570305-2.77137 3.18305-5.507967 5.985496-7.540052"
       id="path60"
       style="stroke-linejoin:round;stroke-linecap:round" />
    <path
       d="m30.41752 78.72729-0.634418 2.367682"
       id="path61"
       style="stroke-linejoin:round;stroke-linecap:round" />
    <path
       d="m33.43354 80.38424-0.581974 2.171954"
       id="path62"
       style="stroke-linejoin:round;stroke-linecap:round" />
    <path
       d="m36.80329 82.37631-0.859941 1.489458"
       id="path63"
       style="stroke-linejoin:round;stroke-linecap:round" />
    <path
       d="m40.3406 84.55454-2.029298 2.029298"
       id="path64"
       style="stroke-linejoin:round;stroke-linecap:round" />
  </g>
</svg>
